<svg xmlns="http://www.w3.org/2000/svg" width="128" height="128" viewBox="0 0 128 128" fill="none" xmlns:v="https://vecta.io/nano"><g clip-path="url(#D)"><path d="M21.518 89.56c.762-.762 1.81-1.207 2.922-1.207h100.811c1.842 0 2.763 2.223 1.461 3.525l-19.915 19.914c-.762.762-1.81 1.207-2.922 1.207H3.065c-1.842 0-2.763-2.223-1.461-3.526L21.518 89.56z" fill="url(#A)"/><path d="M21.518 15.207C22.312 14.445 23.361 14 24.44 14h100.811c1.842 0 2.763 2.223 1.461 3.526L106.797 37.44a4.13 4.13 0 0 1-2.922 1.207H3.065c-1.842 0-2.763-2.223-1.461-3.526l19.914-19.914z" fill="url(#B)"/><path d="M106.797 52.145a4.13 4.13 0 0 0-2.922-1.207H3.065c-1.842 0-2.763 2.223-1.461 3.526l19.914 19.914c.762.762 1.81 1.207 2.922 1.207h100.811c1.842 0 2.763-2.223 1.461-3.525l-19.915-19.914z" fill="url(#C)"/></g><defs><linearGradient id="A" x1="115.62" y1="2.104" x2="45.852" y2="135.739" gradientUnits="userSpaceOnUse"><stop stop-color="#00ffa3"/><stop offset="1" stop-color="#dc1fff"/></linearGradient><linearGradient id="B" x1="85.114" y1="-13.823" x2="15.345" y2="119.812" gradientUnits="userSpaceOnUse"><stop stop-color="#00ffa3"/><stop offset="1" stop-color="#dc1fff"/></linearGradient><linearGradient id="C" x1="100.27" y1="-5.911" x2="30.501" y2="127.725" gradientUnits="userSpaceOnUse"><stop stop-color="#00ffa3"/><stop offset="1" stop-color="#dc1fff"/></linearGradient><clipPath id="D"><path fill="#fff" transform="translate(1 14)" d="M0 0h126.315v99H0z"/></clipPath></defs></svg>